HIERARCHY
ROOT Hips
{
	OFFSET 0.000000 0.000000 0.000000
	CHANNELS 6 Xposition Yposition Zposition Xrotation Yrotation Zrotation
	JOINT Chest
	{
		OFFSET 0.000000 0.009282 11.569106
		CHANNELS 3 Xrotation Yrotation Zrotation
		JOINT Chest2
		{
			OFFSET 0.000000 -0.016863 9.269641
			CHANNELS 3 Xrotation Yrotation Zrotation
			JOINT Chest3
			{
				OFFSET 0.000000 0.000000 8.374491
				CHANNELS 3 Xrotation Yrotation Zrotation
				JOINT Chest4
				{
					OFFSET 0.000000 0.000000 8.374493
					CHANNELS 3 Xrotation Yrotation Zrotation
					JOINT Neck
					{
						OFFSET 0.000000 -0.000001 12.152554
						CHANNELS 3 Xrotation Yrotation Zrotation
						JOINT Head
						{
							OFFSET 0.000000 -0.040100 7.802319
							CHANNELS 3 Xrotation Yrotation Zrotation
							End Site
							{
								OFFSET 0.000000 -0.020946 14.853096
							}
						}
					}
					JOINT RightCollar
					{
						OFFSET -2.894404 0.000000 6.791374
						CHANNELS 3 Xrotation Yrotation Zrotation
						JOINT RightShoulder
						{
							OFFSET -13.574684 0.000000 0.000000
							CHANNELS 3 Xrotation Yrotation Zrotation
							JOINT RightElbow
							{
								OFFSET -23.923903 0.000000 0.000000
								CHANNELS 3 Xrotation Yrotation Zrotation
								JOINT RightWrist
								{
									OFFSET -19.846718 -0.012765 0.000000
									CHANNELS 3 Xrotation Yrotation Zrotation
									End Site
									{
										OFFSET -14.973145 0.000000 0.000000
									}
								}
							}
						}
					}
					JOINT LeftCollar
					{
						OFFSET 2.894404 0.000000 6.791374
						CHANNELS 3 Xrotation Yrotation Zrotation
						JOINT LeftShoulder
						{
							OFFSET 13.574684 0.000000 0.000000
							CHANNELS 3 Xrotation Yrotation Zrotation
							JOINT LeftElbow
							{
								OFFSET 23.923903 0.000000 0.000000
								CHANNELS 3 Xrotation Yrotation Zrotation
								JOINT LeftWrist
								{
									OFFSET 19.846718 -0.012765 0.000000
									CHANNELS 3 Xrotation Yrotation Zrotation
									End Site
									{
										OFFSET 14.973145 0.000000 0.000000
									}
								}
							}
						}
					}
				}
			}
		}
	}
	JOINT RightHip
	{
		OFFSET -9.469263 -0.004642 0.045487
		CHANNELS 3 Xrotation Yrotation Zrotation
		JOINT RightKnee
		{
			OFFSET 0.000000 -0.002666 -40.478676
			CHANNELS 3 Xrotation Yrotation Zrotation
			JOINT RightAnkle
			{
				OFFSET 0.000000 -0.049110 -35.224068
				CHANNELS 3 Xrotation Yrotation Zrotation
				JOINT RightToe
				{
					OFFSET 0.000000 -12.539530 -6.151390
					CHANNELS 3 Xrotation Yrotation Zrotation
					End Site
					{
						OFFSET 0.000000 -5.044995 -1.291870
					}
				}
			}
		}
	}
	JOINT LeftHip
	{
		OFFSET 9.469263 -0.004642 0.045487
		CHANNELS 3 Xrotation Yrotation Zrotation
		JOINT LeftKnee
		{
			OFFSET 0.000000 -0.002666 -40.478676
			CHANNELS 3 Xrotation Yrotation Zrotation
			JOINT LeftAnkle
			{
				OFFSET 0.000000 -0.049110 -35.224068
				CHANNELS 3 Xrotation Yrotation Zrotation
				JOINT LeftToe
				{
					OFFSET 0.000000 -12.539530 -6.151390
					CHANNELS 3 Xrotation Yrotation Zrotation
					End Site
					{
						OFFSET 0.000000 -5.044995 -1.291870
					}
				}
			}
		}
	}
}
MOTION
Frames: 11
Frame Time: 0.016667
-10.921787 -6.668920 83.025459 2.724914 6.831212 -111.514094 2.897500 0.003856 0.605069 1.285270 -0.004618 0.271748 1.285270 -0.004618 0.271746 0.963951 -0.004035 0.203802 20.827724 -0.274286 -1.403475 2.500281 -0.087604 -2.648806 -1.814206 -10.562162 -3.526440 -52.746754 -67.227824 -47.408695 6.982158 2.128359 7.951255 -22.145609 43.615577 38.031706 0.871848 9.800489 -0.020674 -49.966976 70.906830 44.996771 -12.016915 -0.057182 -5.177639 -11.560780 -36.487663 -33.707421 7.926201 0.613973 -3.205976 4.321999 -1.783838 -4.053882 -4.679043 1.127468 2.197075 0.023160 -0.034876 0.032070 9.294983 0.690744 0.244837 2.766903 -0.084140 3.952408 -4.903200 -1.041270 1.134585 0.019208 -0.003023 -0.032598 
-10.930361 -6.670552 83.023903 2.735060 6.860433 -111.495120 2.930129 -0.001013 0.610897 1.299373 -0.006567 0.274713 1.299373 -0.006567 0.274714 0.974527 -0.005509 0.206021 20.863972 -0.295593 -1.413612 2.567315 -0.124314 -2.673545 -1.810945 -10.560342 -3.555711 -53.216627 -67.298701 -47.860228 6.287051 2.095442 8.147419 -24.427903 44.454962 40.684565 0.877740 9.801257 0.025092 -50.801021 71.098485 45.780586 -12.892191 -0.021885 -5.279211 -13.967279 -37.857894 -36.259931 7.962022 0.617920 -3.251835 4.329977 -1.782079 -4.032686 -4.692615 1.128145 2.202635 0.024158 -0.036875 0.030885 9.321344 0.692853 0.236936 2.783923 -0.083192 3.955464 -4.915023 -1.037272 1.135513 0.018576 -0.005238 -0.032003 
-10.940378 -6.676107 83.022499 2.741335 6.888727 -111.476153 2.953148 -0.003404 0.615536 1.309402 -0.007214 0.277141 1.309402 -0.007215 0.277137 0.982048 -0.006004 0.207842 20.919930 -0.318746 -1.424008 2.670884 -0.164733 -2.699248 -1.742006 -10.545533 -3.582827 -53.700955 -67.381934 -48.273755 5.706329 2.085342 8.290295 -26.298460 45.043854 42.957433 0.958275 9.799013 0.056040 -51.620247 71.264199 46.513202 -13.657454 0.062957 -5.395175 -16.240180 -39.074129 -38.672108 7.996791 0.622780 -3.300398 4.338009 -1.781688 -4.015694 -4.708317 1.131572 2.199080 0.025735 -0.038057 0.029545 9.344907 0.702974 0.220761 2.801742 -0.086059 3.962318 -4.926899 -1.035385 1.134055 0.017622 -0.006031 -0.032051 
-10.947510 -6.683534 83.020844 2.747205 6.908015 -111.459637 2.971568 -0.005296 0.624707 1.317798 -0.007976 0.280792 1.317798 -0.007976 0.280790 0.988346 -0.006587 0.210574 20.985264 -0.344336 -1.436822 2.791856 -0.209120 -2.730022 -1.685435 -10.538085 -3.590799 -54.105053 -67.477502 -48.616180 5.237161 2.151119 8.376550 -27.946033 45.486751 45.021943 1.045062 9.788234 0.063257 -52.286300 71.427817 47.102077 -14.229173 0.132145 -5.481305 -18.411757 -40.058930 -40.832459 8.007467 0.636533 -3.328942 4.369770 -1.793962 -3.999810 -4.729200 1.137796 2.194636 0.025017 -0.039841 0.028834 9.358158 0.709081 0.225544 2.819298 -0.084974 3.963209 -4.938557 -1.036150 1.118040 0.018017 -0.006509 -0.031829 
-10.949970 -6.692469 83.019714 2.753028 6.929263 -111.441769 2.995794 -0.008716 0.633813 1.328996 -0.008829 0.283397 1.328997 -0.008829 0.283401 0.996744 -0.007238 0.212530 21.009974 -0.363679 -1.453620 2.837546 -0.240100 -2.766352 -1.715538 -10.539445 -3.602185 -54.336627 -67.604502 -48.852330 4.774805 2.244431 8.409105 -29.540370 45.845715 47.069333 1.025804 9.765432 0.128602 -52.605690 71.679475 47.429547 -14.663825 0.144093 -5.509548 -20.571536 -40.771073 -42.907180 8.010162 0.646151 -3.324890 4.414163 -1.805201 -3.991831 -4.751265 1.148914 2.164114 0.022410 -0.042231 0.027901 9.368424 0.714011 0.244763 2.839006 -0.081603 3.955437 -4.947949 -1.037061 1.098995 0.018596 -0.007678 -0.030410 
-10.948474 -6.699169 83.018814 2.759470 6.945826 -111.424059 3.020359 -0.012711 0.642558 1.339888 -0.009824 0.286392 1.339888 -0.009825 0.286389 1.004911 -0.007997 0.214772 21.005147 -0.376629 -1.474895 2.828568 -0.257475 -2.809082 -1.702445 -10.526432 -3.627913 -54.492506 -67.785195 -48.967822 4.314353 2.321408 8.391916 -31.189437 46.101581 49.106512 1.021918 9.740885 0.204307 -52.820322 71.982052 47.619536 -15.124966 0.132573 -5.473276 -22.643206 -41.382593 -45.151672 8.008635 0.652856 -3.312587 4.452749 -1.815968 -3.982760 -4.767592 1.163140 2.135741 0.020369 -0.046123 0.028887 9.373420 0.712961 0.273305 2.856753 -0.076628 3.936276 -4.956313 -1.037449 1.079714 0.021028 -0.008119 -0.029899 
-10.944591 -6.706244 83.017380 2.763259 6.956173 -111.405132 3.041392 -0.016374 0.647465 1.348790 -0.011308 0.287850 1.348792 -0.011308 0.287846 1.011588 -0.009117 0.215862 20.981460 -0.384341 -1.498964 2.784711 -0.264041 -2.855469 -1.629117 -10.519469 -3.604553 -54.638477 -67.963224 -49.041291 3.885429 2.363514 8.368691 -32.882074 46.332769 51.067736 1.096212 9.720598 0.242193 -53.140730 72.275395 47.840240 -15.645609 0.096983 -5.393190 -24.631535 -42.052078 -47.679041 7.999841 0.656998 -3.323825 4.490863 -1.825135 -3.958274 -4.783791 1.178630 2.109058 0.019956 -0.048417 0.028563 9.367190 0.712111 0.290950 2.880255 -0.072692 3.924824 -4.966481 -1.038144 1.058158 0.023901 -0.007298 -0.029584 
-10.937950 -6.712721 83.016312 2.764947 6.961309 -111.385762 3.065994 -0.017629 0.653834 1.359498 -0.011757 0.289940 1.359498 -0.011757 0.289939 1.019618 -0.009463 0.217430 20.943165 -0.391956 -1.525106 2.713746 -0.269491 -2.905665 -1.595374 -10.502208 -3.598397 -54.703453 -68.181209 -49.081920 3.470537 2.378294 8.328757 -34.574175 46.541339 53.007961 1.085106 9.701195 0.293359 -53.301628 72.581306 47.978268 -16.073657 0.008999 -5.283245 -26.459921 -42.702797 -50.081829 7.981406 0.661450 -3.334851 4.532613 -1.832958 -3.940513 -4.798070 1.192052 2.093446 0.018574 -0.050120 0.029041 9.353359 0.709414 0.299520 2.904383 -0.066826 3.915698 -4.975540 -1.040682 1.040137 0.026910 -0.005403 -0.029744 
-10.929798 -6.718236 83.016418 2.762221 6.963786 -111.370654 3.090979 -0.019340 0.659816 1.370537 -0.011887 0.292097 1.370536 -0.011887 0.292097 1.027897 -0.009570 0.219052 20.889961 -0.392864 -1.550920 2.615272 -0.262418 -2.953357 -1.569308 -10.469446 -3.610029 -54.810479 -68.436583 -49.172834 3.078697 2.440645 8.279463 -36.286148 46.719918 55.013335 1.053687 9.688388 0.326690 -53.316914 72.871889 48.003437 -16.252184 -0.117537 -5.172875 -28.121188 -43.242508 -51.978378 7.958267 0.666142 -3.337091 4.573538 -1.839875 -3.935877 -4.810147 1.204993 2.074950 0.016462 -0.049744 0.028736 9.332754 0.707964 0.307192 2.932773 -0.057607 3.909336 -4.983113 -1.042804 1.027994 0.026796 -0.004749 -0.028851 
-10.921851 -6.721019 83.017448 2.758528 6.960396 -111.354773 3.114349 -0.023205 0.669182 1.380762 -0.013663 0.296109 1.380763 -0.013663 0.296109 1.035566 -0.010916 0.222052 20.822166 -0.389349 -1.577971 2.489818 -0.246518 -3.002048 -1.550173 -10.450148 -3.604275 -55.007799 -68.687067 -49.367839 2.681103 2.539979 8.229543 -38.105434 46.880076 57.132586 1.075478 9.663609 0.344944 -53.163792 73.174808 47.812567 -16.239787 -0.219418 -5.044494 -29.667258 -43.602101 -53.393245 7.927603 0.672637 -3.348907 4.619107 -1.848790 -3.931156 -4.823589 1.215797 2.089983 0.013306 -0.048604 0.028412 9.306029 0.702518 0.315998 2.963331 -0.047945 3.895328 -4.991231 -1.045286 1.017250 0.025623 -0.002624 -0.027999 
-10.913824 -6.723935 83.018013 2.750366 6.945322 -111.337411 3.141127 -0.031613 0.673520 1.392820 -0.018070 0.296973 1.392819 -0.018070 0.296972 1.044605 -0.014230 0.222689 20.735326 -0.374171 -1.599833 2.329200 -0.210341 -3.037829 -1.492484 -10.431433 -3.562317 -55.239623 -68.957638 -49.525575 2.188826 2.621907 8.159054 -39.906357 46.965443 59.228136 1.009878 9.640564 0.436193 -52.741478 73.513012 47.405406 -16.225032 -0.259150 -4.896435 -31.102537 -43.765407 -54.650714 7.882227 0.679037 -3.371630 4.671672 -1.865400 -3.912362 -4.841306 1.232832 2.074669 0.009821 -0.045787 0.027053 9.267847 0.695731 0.334774 2.991552 -0.036247 3.872238 -5.000016 -1.051198 0.996887 0.026115 0.000543 -0.026962 
